HIERARCHY
ROOT hip
{
  OFFSET 0 0 0
  CHANNELS 6 Xposition Yposition Zposition Zrotation Yrotation Xrotation
  JOINT abdomen
  {
    OFFSET 0 20.6881 -0.73152
    CHANNELS 3 Zrotation Xrotation Yrotation
    JOINT chest
    {
      OFFSET 0 11.7043 -0.48768
      CHANNELS 3 Zrotation Xrotation Yrotation
      JOINT neck
      {
        OFFSET 0 22.1894 -2.19456
        CHANNELS 3 Zrotation Xrotation Yrotation
        JOINT head
        {
          OFFSET -0.24384 7.07133 1.2192
          CHANNELS 3 Zrotation Xrotation Yrotation
          JOINT leftEye
          {
            OFFSET 4.14528 8.04674 8.04672
            CHANNELS 3 Zrotation Xrotation Yrotation
            End Site
            {
              OFFSET 1 0 0
            }
          }
          JOINT rightEye
          {
            OFFSET -3.6576 8.04674 8.04672
            CHANNELS 3 Zrotation Xrotation Yrotation
            End Site
            {
              OFFSET 1 0 0
            }
          }
        }
      }
      JOINT rCollar
      {
        OFFSET -2.68224 19.2634 -4.8768
        CHANNELS 3 Zrotation Xrotation Yrotation
        JOINT rShldr
        {
          OFFSET -8.77824 -1.95073 1.46304
          CHANNELS 3 Zrotation Xrotation Yrotation
          JOINT rForeArm
          {
            OFFSET -28.1742 -1.7115 0.48768
            CHANNELS 3 Zrotation Xrotation Yrotation
            JOINT rHand
            {
              OFFSET -22.5879 0.773209 7.07136
              CHANNELS 3 Zrotation Xrotation Yrotation
              JOINT rThumb1
              {
                OFFSET -1.2192 -0.487915 3.41376
                CHANNELS 3 Zrotation Xrotation Yrotation
                JOINT rThumb2
                {
                  OFFSET -3.37035 -0.52449 3.41376
                  CHANNELS 3 Zrotation Xrotation Yrotation
                  End Site
                  {
                    OFFSET -1.78271 -1.18214 1.43049
                  }
                }
              }
              JOINT rIndex1
              {
                OFFSET -7.75947 0.938293 5.60832
                CHANNELS 3 Zrotation Xrotation Yrotation
                JOINT rIndex2
                {
                  OFFSET -2.54057 -0.884171 1.56538
                  CHANNELS 3 Zrotation Xrotation Yrotation
                  End Site
                  {
                    OFFSET -1.62519 -0.234802 1.16502
                  }
                }
              }
              JOINT rMid1
              {
                OFFSET -8.24714 1.18213 3.41376
                CHANNELS 3 Zrotation Xrotation Yrotation
                JOINT rMid2
                {
                  OFFSET -3.10165 -0.590103 1.0647
                  CHANNELS 3 Zrotation Xrotation Yrotation
                  End Site
                  {
                    OFFSET -2.48547 -0.328903 0.83742
                  }
                }
              }
              JOINT rRing1
              {
                OFFSET -8.82822 0.546677 1.51678
                CHANNELS 3 Zrotation Xrotation Yrotation
                JOINT rRing2
                {
                  OFFSET -2.60934 -0.819778 -0.0198488
                  CHANNELS 3 Zrotation Xrotation Yrotation
                  End Site
                  {
                    OFFSET -2.33842 -0.294052 0.168128
                  }
                }
              }
              JOINT rPinky1
              {
                OFFSET -8.27202 -0.0477905 -0.4584
                CHANNELS 3 Zrotation Xrotation Yrotation
                JOINT rPinky2
                {
                  OFFSET -1.82734 -0.647385 -0.700984
                  CHANNELS 3 Zrotation Xrotation Yrotation
                  End Site
                  {
                    OFFSET -1.69225 -0.51767 -0.607171
                  }
                }
              }
            }
          }
        }
      }
      JOINT lCollar
      {
        OFFSET 2.68224 19.2634 -4.8768
        CHANNELS 3 Zrotation Xrotation Yrotation
        JOINT lShldr
        {
          OFFSET 8.77824 -1.95073 1.46304
          CHANNELS 3 Zrotation Xrotation Yrotation
          JOINT lForeArm
          {
            OFFSET 28.1742 -1.7115 0.48768
            CHANNELS 3 Zrotation Xrotation Yrotation
            JOINT lHand
            {
              OFFSET 22.5879 0.773209 7.07136
              CHANNELS 3 Zrotation Xrotation Yrotation
              JOINT lThumb1
              {
                OFFSET 1.2192 -0.487915 3.41376
                CHANNELS 3 Zrotation Xrotation Yrotation
                JOINT lThumb2
                {
                  OFFSET 3.37035 -0.52449 3.41376
                  CHANNELS 3 Zrotation Xrotation Yrotation
                  End Site
                  {
                    OFFSET 1.78271 -1.18214 1.43049
                  }
                }
              }
              JOINT lIndex1
              {
                OFFSET 7.75947 0.938293 5.60832
                CHANNELS 3 Zrotation Xrotation Yrotation
                JOINT lIndex2
                {
                  OFFSET 2.54057 -0.884171 1.56538
                  CHANNELS 3 Zrotation Xrotation Yrotation
                  End Site
                  {
                    OFFSET 1.62519 -0.234802 1.16502
                  }
                }
              }
              JOINT lMid1
              {
                OFFSET 8.24714 1.18213 3.41376
                CHANNELS 3 Zrotation Xrotation Yrotation
                JOINT lMid2
                {
                  OFFSET 3.10165 -0.590103 1.0647
                  CHANNELS 3 Zrotation Xrotation Yrotation
                  End Site
                  {
                    OFFSET 2.48547 -0.328903 0.83742
                  }
                }
              }
              JOINT lRing1
              {
                OFFSET 8.82822 0.546677 1.51678
                CHANNELS 3 Zrotation Xrotation Yrotation
                JOINT lRing2
                {
                  OFFSET 2.60934 -0.819778 -0.0198488
                  CHANNELS 3 Zrotation Xrotation Yrotation
                  End Site
                  {
                    OFFSET 2.33842 -0.294052 0.168128
                  }
                }
              }
              JOINT lPinky1
              {
                OFFSET 8.27202 -0.0477905 -0.4584
                CHANNELS 3 Zrotation Xrotation Yrotation
                JOINT lPinky2
                {
                  OFFSET 1.82734 -0.647385 -0.700984
                  CHANNELS 3 Zrotation Xrotation Yrotation
                  End Site
                  {
                    OFFSET 1.69225 -0.51767 -0.607171
                  }
                }
              }
            }
          }
        }
      }
    }
  }
  JOINT rButtock
  {
    OFFSET -8.77824 4.35084 1.2192
    CHANNELS 3 Zrotation Xrotation Yrotation
    JOINT rThigh
    {
      OFFSET 0 -1.70687 -2.19456
      CHANNELS 3 Zrotation Xrotation Yrotation
      JOINT rShin
      {
        OFFSET 0 -36.8199 0.73152
        CHANNELS 3 Zrotation Xrotation Yrotation
        JOINT rFoot
        {
          OFFSET 0.73152 -45.1104 -5.12064
          CHANNELS 3 Zrotation Xrotation Yrotation
          End Site
          {
            OFFSET -1.1221 -3.69964 12.103
          }
        }
      }
    }
  }
  JOINT lButtock
  {
    OFFSET 8.77824 4.35084 1.2192
    CHANNELS 3 Zrotation Xrotation Yrotation
    JOINT lThigh
    {
      OFFSET 0 -1.70687 -2.19456
      CHANNELS 3 Zrotation Xrotation Yrotation
      JOINT lShin
      {
        OFFSET 0 -36.8199 0.73152
        CHANNELS 3 Zrotation Xrotation Yrotation
        JOINT lFoot
        {
          OFFSET -0.73152 -45.1104 -5.12064
          CHANNELS 3 Zrotation Xrotation Yrotation
          End Site
          {
            OFFSET 1.1221 -3.69964 12.103
          }
        }
      }
    }
  }
}
MOTION
Frames:	4
Frame Time:	0.03333
-3.78008902908461 33.24066263371406 37.92636842877096 155.2349853515625 -53.655799865722656 -151.3939971923828 -11.812899589538574 27.314498901367188 13.25429916381836 -7.929477691650391 -9.422459602355957 1.9478498697280884 2.277979850769043 13.47079849243164 14.391399383544922 -6.944929122924805 -15.515198707580566 26.69919776916504 -0.0 0.0 -0.0 -0.0 0.0 -0.0 -2.544443605465019e-13 -8.905552510707349e-12 2.0037493799612838e-12 48.05229568481445 66.47789764404297 3.235729694366455 -28.299095153808594 -38.352603912353516 81.01749420166016 -0.056580401957035065 6.772130012512207 0.9562619924545288 8.761257497269526e-09 -1.0074902689893861e-08 -5.966663163547992e-09 1.5078601478535347e-08 -1.7402099317109787e-08 -1.0358601976179216e-08 8.761257497269526e-09 -1.0075003942233707e-08 -5.966663163547992e-09 7.7309088706970215 5.474880218505859 0.41731396317481995 8.761257497269526e-09 -1.0075003942233707e-08 -5.966663163547992e-09 2.9055399894714355 0.9651829600334167 0.10290198773145676 8.761269931767401e-09 -1.0075003942233707e-08 -5.966663163547992e-09 10.27859878540039 0.73180091381073 0.025912299752235413 8.76124417459323e-09 -1.0075003942233707e-08 -5.966650284960906e-09 2.2216696739196777 -0.7334870100021362 -0.2089199721813202 -2.544443605465019e-13 -8.905552510707349e-12 2.0037493799612838e-12 -60.70479965209961 18.703100204467773 -4.491349697113037 27.4153995513916 -42.78989791870117 -89.0845947265625 0.9245008230209351 -26.21769905090332 3.96852970123291 -9.14213504898953e-09 1.8028909476441868e-09 -7.0756205339250755e-09 -1.5650591933535907e-08 3.1516114162855047e-09 -1.2416000672033078e-08 -9.142147483487406e-09 1.80290371520897e-09 -7.07560765533799e-09 -7.7309088706970215 5.474880218505859 -0.41731396317481995 -9.14213504898953e-09 1.8028909476441868e-09 -7.0756205339250755e-09 -2.9055399894714355 0.9651829600334167 -0.10290198773145676 -9.142147483487406e-09 1.8028909476441868e-09 -7.0756205339250755e-09 -10.27859878540039 0.73180091381073 -0.025912299752235413 -9.14213504898953e-09 1.80290371520897e-09 -7.075626751174013e-09 -2.2216696739196777 -0.7334870100021362 0.2089199721813202 -0.0 0.0 -0.0 -52.16449737548828 -55.6448974609375 -33.153297424316406 -3.0752599239349365 75.78939056396484 3.9778199195861816 3.447699785232544 -19.4341983795166 5.548590183258057 -0.0 0.0 -0.0 23.137296676635742 -32.938499450683594 18.28380012512207 0.578936755657196 59.75819778442383 -3.1019299030303955 -2.670099973678589 -4.50676965713501 -6.58044958114624
-3.972889327799269 32.40167976211013 38.29707211681621 156.6859893798828 -53.99749755859375 -153.3769989013672 -12.079798698425293 27.222501754760742 13.190299034118652 -7.652888298034668 -9.677530288696289 1.9157099723815918 2.0508697032928467 13.844200134277344 14.495098114013672 -6.383230209350586 -16.547998428344727 26.972795486450195 -0.0 0.0 -0.0 -0.0 0.0 -0.0 -1.2722218027325094e-14 -5.966720173500306e-12 1.2149718080570193e-12 53.21559524536133 65.94669342041016 -1.536219835281372 -28.27409553527832 -38.590301513671875 81.42919921875 -0.05870232358574867 6.857260227203369 0.968497097492218 6.230133742235466e-09 -6.668108731844313e-09 -5.141156389498747e-09 1.0722297716370122e-08 -1.1516800846322894e-08 -8.921461791544516e-09 6.230146620822552e-09 -6.668108731844313e-09 -5.141156389498747e-09 7.7309088706970215 5.474880218505859 0.41731396317481995 6.230133742235466e-09 -6.668108731844313e-09 -5.141156389498747e-09 2.9055399894714355 0.9651829600334167 0.10290198773145676 6.230133742235466e-09 -6.668108731844313e-09 -5.141150172249809e-09 10.27859878540039 0.73180091381073 0.025912299752235413 6.230133742235466e-09 -6.668108731844313e-09 -5.141137293662723e-09 2.2216696739196777 -0.7334870100021362 -0.2089199721813202 -1.2722218027325094e-14 -5.966720173500306e-12 1.2149718080570193e-12 -60.1547966003418 21.13389778137207 -5.804890155792236 27.22889518737793 -43.373695373535156 -90.20929718017578 0.8509421348571777 -25.239898681640625 3.7988698482513428 -5.49831380425303e-09 9.956407920341803e-10 -4.84451900817362e-09 -9.397953526502079e-09 1.7505008553797552e-09 -8.489669411915202e-09 -5.49831380425303e-09 9.956407920341803e-10 -4.84451900817362e-09 -7.7309088706970215 5.474880218505859 -0.41731396317481995 -5.49831380425303e-09 9.956407920341803e-10 -4.84451900817362e-09 -2.9055399894714355 0.9651829600334167 -0.10290198773145676 -5.49831380425303e-09 9.956407920341803e-10 -4.84451900817362e-09 -10.27859878540039 0.73180091381073 -0.025912299752235413 -5.49831380425303e-09 9.956407920341803e-10 -4.844531442671496e-09 -2.2216696739196777 -0.7334870100021362 0.2089199721813202 -0.0 0.0 -0.0 -53.29829406738281 -56.08869934082031 -34.36469650268555 -3.800450563430786 77.9425048828125 4.704339981079102 3.655329704284668 -19.906999588012695 5.838980197906494 -0.0 0.0 -0.0 22.581798553466797 -32.06980514526367 17.464900970458984 0.6217467188835144 60.39750289916992 -3.1224098205566406 -2.04610013961792 -8.816550254821777 -0.5527939796447754
-4.127759825144701 31.67276197388637 38.67235947544435 157.79100036621094 -54.77909851074219 -155.14198303222656 -12.404197692871094 27.181699752807617 13.151501655578613 -7.321529388427734 -10.025199890136719 1.8887898921966553 1.710869550704956 14.228199005126953 14.575199127197266 -5.742769241333008 -17.393400192260742 27.21830177307129 -0.0 0.0 -0.0 -0.0 0.0 -0.0 8.905552619127566e-14 -1.8065549056700547e-12 2.7988879660115207e-13 58.45549392700195 65.04679870605469 -6.359989643096924 -28.243398666381836 -38.848899841308594 81.88279724121094 -0.06947239488363266 7.4990692138671875 1.0600498914718628 3.170376627892324e-09 -2.9116449251631593e-09 -3.5968190648105747e-09 5.4569029295237215e-09 -5.029207272855274e-09 -6.2405915990382255e-09 3.1703895064794096e-09 -2.911657803750245e-09 -3.5968319433976603e-09 7.7309088706970215 5.474880218505859 0.41731396317481995 3.170376627892324e-09 -2.9116449251631593e-09 -3.5968190648105747e-09 2.9055399894714355 0.9651829600334167 0.10290198773145676 3.170376627892324e-09 -2.9116449251631593e-09 -3.5968128475616368e-09 10.27859878540039 0.73180091381073 0.025912299752235413 3.1703639713498433e-09 -2.9116449251631593e-09 -3.596799968974551e-09 2.2216696739196777 -0.7334870100021362 -0.2089199721813202 8.905552619127566e-14 -1.8065549056700547e-12 2.7988879660115207e-13 -59.288299560546875 23.7560977935791 -7.4724297523498535 27.048295974731445 -43.88520431518555 -91.21649169921875 0.8159369230270386 -24.758499145507812 3.7162694931030273 -1.3204517479437072e-09 1.9696537456592722e-10 -1.688639117425339e-09 -2.242443564171026e-09 3.5842304124678037e-10 -2.9534183987323104e-09 -1.3204517479437072e-09 1.9696537456592722e-10 -1.688639117425339e-09 -7.7309088706970215 5.474880218505859 -0.41731396317481995 -1.3204517479437072e-09 1.9696537456592722e-10 -1.688639117425339e-09 -2.9055399894714355 0.9651829600334167 -0.10290198773145676 -1.320464404486188e-09 1.9696537456592722e-10 -1.688639117425339e-09 -10.27859878540039 0.73180091381073 -0.025912299752235413 -1.320438980378924e-09 1.9696537456592722e-10 -1.688639117425339e-09 -2.2216696739196777 -0.7334870100021362 0.2089199721813202 -0.0 0.0 -0.0 -54.75429916381836 -56.3120002746582 -35.894100189208984 -4.745110034942627 79.94190216064453 5.66256046295166 3.7610092163085938 -20.2958984375 5.890359401702881 -0.0 0.0 -0.0 22.854297637939453 -31.97279930114746 17.584800720214844 0.7020571231842041 62.04019546508789 -3.2380998134613037 -0.3842869997024536 -12.69909954071045 6.244629383087158
-4.209635497190719 31.00125534073115 38.98805922321667 158.61898803710938 -55.93589782714844 -156.43798828125 -13.104900360107422 27.152000427246094 13.20829963684082 -6.723469257354736 -10.455101013183594 1.8870601654052734 1.2779399156570435 14.35669994354248 14.728699684143066 -4.853830337524414 -17.51620101928711 27.64620018005371 -0.0 0.0 -0.0 -0.0 0.0 -0.0 -8.905552619127566e-14 2.9261101462847716e-13 1.3994439830057603e-13 63.12799835205078 63.84450149536133 -10.860400199890137 -28.212099075317383 -39.09700012207031 82.31739807128906 -0.08863206952810287 8.506799697875977 1.2043598890304565 1.2774633573187089e-09 -1.0563258046047963e-09 -1.2914196378943643e-09 2.198564663657976e-09 -1.8262743539665394e-09 -2.2426280832377188e-09 1.277476124883492e-09 -1.0563258046047963e-09 -1.2914324054591475e-09 7.7309088706970215 5.474880218505859 0.41731396317481995 1.2774633573187089e-09 -1.0563258046047963e-09 -1.2914196378943643e-09 2.9055399894714355 0.9651829600334167 0.10290198773145676 1.2774633573187089e-09 -1.0563258046047963e-09 -1.2914068703295811e-09 10.27859878540039 0.73180091381073 0.025912299752235413 1.2774633573187089e-09 -1.0563258046047963e-09 -1.2914005420583408e-09 2.2216696739196777 -0.7334870100021362 -0.2089199721813202 -8.905552619127566e-14 2.9261101462847716e-13 1.3994439830057603e-13 -58.02259826660156 26.610000610351562 -9.748998641967773 26.894302368164062 -44.2914924621582 -92.02699279785156 0.9507788419723511 -26.623798370361328 4.03734016418457 -1.059824339399995e-09 7.029152815363204e-10 -1.418527295626859e-09 -1.801071736196036e-09 1.2332155296945757e-09 -2.4759407857288807e-09 -1.0598371069647783e-09 7.029152815363204e-10 -1.418527295626859e-09 -7.7309088706970215 5.474880218505859 -0.41731396317481995 -1.0598371069647783e-09 7.029152815363204e-10 -1.4185400631916423e-09 -2.9055399894714355 0.9651829600334167 -0.10290198773145676 -1.0598371069647783e-09 7.029152815363204e-10 -1.4185400631916423e-09 -10.27859878540039 0.73180091381073 -0.025912299752235413 -1.059824339399995e-09 7.029152815363204e-10 -1.418552719734123e-09 -2.2216696739196777 -0.7334870100021362 0.2089199721813202 -0.0 0.0 -0.0 -56.69169998168945 -56.23369598388672 -37.79450225830078 -6.0145697593688965 81.78780364990234 6.966649055480957 3.7211098670959473 -20.636201858520508 5.631970405578613 -0.0 0.0 -0.0 23.785396575927734 -32.777099609375 18.660598754882812 0.786033034324646 63.65029525756836 -3.3811898231506348 0.8623778820037842 -14.582901954650879 9.821810722351074
